<svg height="512pt" viewBox="0 -9 512 512" width="512pt" xmlns="http://www.w3.org/2000/svg"><path d="m469.332031 0h-153.597656c-23.554687.0273438-42.640625 19.113281-42.667969 42.667969v42.664062h-170.667968v-17.066406c0-28.277344-22.921876-51.199219-51.199219-51.199219-28.277344 0-51.199219 22.921875-51.199219 51.199219v375.46875c.0273438 28.265625 22.933594 51.171875 51.199219 51.199219h375.46875c28.265625-.027344 51.171875-22.933594 51.199219-51.199219v-17.921875c19.851562-4.082031 34.105468-21.546875 34.132812-41.8125v-341.332031c-.027344-23.554688-19.113281-42.6406252-42.667969-42.667969zm-153.597656 17.066406h153.597656c14.140625 0 25.601563 11.460938 25.601563 25.601563v25.597656h-204.800782v-25.597656c0-14.140625 11.460938-25.601563 25.601563-25.601563zm179.199219 298.667969h-204.800782v-230.402344h204.800782zm-221.867188-132.214844-93.328125-38.453125h93.328125zm-13.867187 12.746094-113.058594 46.585937c-.675781-1.199218-1.046875-2.542968-1.074219-3.917968v-85.332032c.027344-1.375.398438-2.722656 1.074219-3.917968zm13.867187 12.75v38.449219h-93.328125zm-221.867187-174.882813c18.851562 0 34.132812 15.28125 34.132812 34.132813v303.277344c-19.382812-17.523438-48.882812-17.523438-68.265625 0v-303.277344c0-18.851563 15.28125-34.132813 34.132813-34.132813zm375.46875 443.734376h-375.46875c-18.851563 0-34.132813-15.28125-34.132813-34.132813v-34.132813c0-18.851562 15.28125-34.136718 34.132813-34.136718 18.851562 0 34.132812 15.285156 34.132812 34.136718 0 4.710938 3.820313 8.53125 8.535157 8.53125 4.710937 0 8.53125-3.820312 8.53125-8.53125v-307.203124h170.667968v25.601562h-119.464844c-4.554687.023438-9.019531 1.273438-12.921874 3.625-.109376 0-.203126.121094-.316407.171875-.636719.394531-1.261719.792969-1.859375 1.238281-.277344.199219-.542968.414063-.792968.648438-6.109376 4.808594-9.683594 12.144531-9.710938 19.917968v85.332032c.027344 7.867187 3.6875 15.28125 9.914062 20.085937.570313.566407 1.21875 1.046875 1.921876 1.433594 4.101562 2.65625 8.878906 4.070313 13.765624 4.082031h119.464844v25.597656h-51.199218c-4.714844 0-8.535157 3.820313-8.535157 8.535157 0 4.710937 3.820313 8.53125 8.535157 8.53125h51.199218v25.601562h-136.53125c-4.714844 0-8.535156 3.820313-8.535156 8.53125 0 4.714844 3.820312 8.535157 8.535156 8.535157h136.53125v34.132812c.027344 23.550781 19.113282 42.636719 42.667969 42.667969h145.066406v17.066406c0 9.050781-3.597656 17.734375-10 24.136719-6.398437 6.398437-15.082031 9.996094-24.132812 9.996094zm42.664062-68.265626h-153.597656c-14.140625 0-25.601563-11.464843-25.601563-25.601562v-51.199219h204.800782v51.199219c0 14.136719-11.460938 25.601562-25.601563 25.601562zm0 0"/><path d="m375.464844 51.199219h34.136718c4.710938 0 8.53125-3.820313 8.53125-8.53125 0-4.714844-3.820312-8.535157-8.53125-8.535157h-34.136718c-4.710938 0-8.53125 3.820313-8.53125 8.535157 0 4.710937 3.820312 8.53125 8.53125 8.53125zm0 0"/><path d="m401.066406 341.332031h-17.066406c-9.425781 0-17.066406 7.640625-17.066406 17.066407v17.066406c0 9.425781 7.640625 17.070312 17.066406 17.070312h17.066406c9.425782 0 17.066406-7.644531 17.066406-17.070312v-17.066406c0-9.425782-7.640624-17.066407-17.066406-17.066407zm-17.066406 34.132813v-17.066406h17.066406v17.066406zm0 0"/><path d="m312.953125 208.945312c.117187.121094.253906.207032.382813.316407 3.046874 2.613281 6.917968 4.054687 10.929687 4.070312h136.535156c4.019531-.019531 7.90625-1.46875 10.957031-4.085937.117188-.101563.238282-.1875.355469-.300782 3.644531-3.207031 5.738281-7.824218 5.753907-12.679687v-76.800781c-.015626-5.230469-2.441407-10.160156-6.578126-13.363282l-.222656-.1875c-2.945312-2.265624-6.550781-3.5-10.265625-3.515624h-136.535156c-3.707031.023437-7.304687 1.265624-10.238281 3.535156l-.179688.144531c-4.167968 3.195313-6.621094 8.136719-6.648437 13.386719v76.800781c.015625 4.855469 2.109375 9.472656 5.753906 12.679687zm147.847656-19.378906-51.890625-31.699218 51.890625-31.691407zm-21.761719 6.699219h-93.011718l46.507812-28.398437zm-46.503906-48.398437-46.507812-28.402344h93.011718zm-16.378906 10-51.890625 31.691406v-63.382813zm0 0"/><path d="m324.265625 247.464844h34.132813c4.714843 0 8.535156-3.820313 8.535156-8.53125 0-4.714844-3.820313-8.535156-8.535156-8.535156h-34.132813c-4.710937 0-8.53125 3.820312-8.53125 8.535156 0 4.710937 3.820313 8.53125 8.53125 8.53125zm0 0"/><path d="m469.332031 230.398438h-76.796875c-4.714844 0-8.535156 3.820312-8.535156 8.535156 0 4.710937 3.820312 8.53125 8.535156 8.53125h76.796875c4.714844 0 8.535157-3.820313 8.535157-8.53125 0-4.714844-3.820313-8.535156-8.535157-8.535156zm0 0"/><path d="m469.332031 264.535156h-145.066406c-4.710937 0-8.53125 3.820313-8.53125 8.53125 0 4.714844 3.820313 8.535156 8.53125 8.535156h145.066406c4.714844 0 8.535157-3.820312 8.535157-8.535156 0-4.710937-3.820313-8.53125-8.535157-8.53125zm0 0"/><path d="m136.535156 307.199219h42.664063c4.714843 0 8.535156-3.820313 8.535156-8.53125 0-4.714844-3.820313-8.535157-8.535156-8.535157h-42.664063c-4.714844 0-8.535156 3.820313-8.535156 8.535157 0 4.710937 3.820312 8.53125 8.535156 8.53125zm0 0"/></svg>